<svg version="1" xmlns="http://www.w3.org/2000/svg" width="160" height="160" viewBox="0 0 120.000000 120.000000"><path d="M40.3 9c-6 1.2-11.9 5.4-14.3 9.9-3.2 6.4-4.3 16.5-2.7 24.6l1.4 6.9-2.6 2c-13 10-19.5 20.4-19.5 31 .1 6.8 1.8 11.2 6.7 16.3 4.6 4.8 11 6.6 22.3 6.1 8.4-.3 10-.7 16.5-4.1 7-3.7 7.2-3.7 9.6-2 5.9 4.2 11.1 7.1 15.7 8.6 5.6 1.9 15.2 2.2 20.8.7 7-2 12.8-8.7 12.8-14.8 0-6.2-6-6.7-8-.6-1.7 5.1-5 6.8-13 6.8-5.5 0-7.9-.6-13.2-3.2-3.5-1.7-7.2-4-8.2-5.1-1.7-1.9-1.7-2.2 1.8-9.2 2-4 3.9-9 4.2-11.1.6-3.7.8-3.8 4.6-3.8 6.5 0 17-2.9 22.8-6.4 10.3-6.1 18-18.8 18-29.7 0-8.6-4-15.1-10.2-16.3-3.7-.7-6.4.6-8.3 4.4-1.5 2.8-1.5 2.9 2 4 2.5.8 3.7 1.9 4.1 3.8.3 1.5.7 3.2.9 3.9.7 2.3-2.2 11.3-4.9 15.2C95 53.5 88 57.2 77.5 58.6l-5 .6-1.3-4.7c-.7-2.5-2.4-5.8-3.8-7.2-2.1-2.1-3.2-2.4-6.2-2-4.4.8-8.2 4.7-8.2 8.6 0 3.4 3.7 9.2 6.8 10.6 1.4.6 2.2 1.9 2.2 3.4 0 2.3-4.8 14.1-5.8 14.1-1.8 0-9.3-13.7-12.6-22.8-1.4-4-2.6-7.5-2.6-7.7 0-.2 2.8-2.3 6.3-4.8 15.3-11 19.6-20 14.7-30.3C58.9 10 50.1 7 40.3 9zm12.5 13.9c.3 4.1.1 4.6-6.1 10.7-3.5 3.5-6.9 6.4-7.5 6.4-1.5 0-1.6-7.7-.1-13.6 1.5-5.7 5-8.6 9.8-8.2 3.5.3 3.6.5 3.9 4.7zm-9.9 61.8L48 91l-2.6 1.7c-3.1 2-11.7 4.3-16.2 4.3-5.1 0-9.9-2.5-11.7-6.1-3.2-6.2-.1-17.5 7-25.7l3.8-4.3 4.8 8.8c2.6 4.8 7 11.6 9.8 15z"/></svg>