<svg xmlns="http://www.w3.org/2000/svg" width="680" height="1024"><path fill="#858e96" d="M0 0h680v1024H0z"/><g fill-opacity=".5"><path d="M606 802l-420-36 44-660z"/><path fill="#f0fcff" d="M50-62L-62 834l292-252z"/><path fill="#daf2ff" d="M742 330L566 906 446-62z"/><path fill="#040000" d="M182 278L498 62 230 690z"/><path fill="#95c3d9" d="M-62 246L86-62l288 288z"/><path d="M342 882l36-628-184-16z"/><path fill="#7abddf" d="M694 166L-62 14l748-76z"/><path fill="#f0feff" d="M274 590l-36 192 60-8z"/><path fill="#ced7de" d="M434 854l8-276 76 292z"/><path fill="#0b0000" d="M290 166l48-80 140 88z"/><path d="M402 670L298 518l200-12zm72 36l76 180-28-368z"/><path fill="#e8effc" d="M150 594l40-404-252 124z"/><path fill="#dfe7f8" d="M742 78v684L478 478z"/><path fill="#c5d8e9" d="M350 786l12-192 40 196z"/><path fill="#d6cbc1" d="M6 854l424 92-292 32z"/><path fill="#f2bb94" d="M342 174l-168 8 260 84z"/><path fill="#000002" d="M382 798l48-172 8 212z"/><path fill="#90949f" d="M650 1066V594l-136 68z"/><path fill="#98a0ac" d="M514 174L366 514l176-8z"/><path fill="#10100f" d="M366 190L174 358l176 428z"/><path fill="#71a2bb" d="M286 186L58-62-62 190z"/><path fill="#b4b5bd" d="M214 434l-48 356-228-16z"/><path fill="#72a2b9" d="M478 190L406-62l336 252z"/><path fill="#160000" d="M250 666l-52 220-4-116z"/></g></svg>