<svg xmlns="http://www.w3.org/2000/svg" width="680" height="1024"><filter id="a"><feGaussianBlur in="SourceGraphic" stdDeviation="5"/></filter><path fill="#8d8770" d="M0 0h680v1024H0z"/><g filter="url(#a)" transform="matrix(4 0 0 4 2 2)" fill-opacity=".5"><path d="M73 23L41 255l121 10z"/><path fill="#fff" d="M-16 126L185 7 2-16z"/><path fill="#fffffc" d="M185-16L-16 2l183 83z"/><path fill="#020000" d="M88 31L22 136l131 135z"/><path fill="#1b1205" d="M129 71L60 46l31 225z"/><path fill="#ffffe6" d="M91-16L19 155-16-1z"/><path fill="#fff1bf" d="M52 163l-68-1 72 81z"/><path fill="#ffffd1" d="M185-1L8-16 147 87z"/><path d="M185 252L63 164l-6 107z"/><path fill="#c9c8ac" d="M185 120l-60-18-14 72z"/><path fill="#413524" d="M28 162l114-63-68-60z"/><path fill="#ffe2aa" d="M-16 161l58 4-37 83z"/><path fill="#fffff8" d="M-16 100l95-63L3-16z"/><path fill="#170e00" d="M-12 253l110-21 87 38z"/><path fill="#040200" d="M170 157l-64 2 29-11z"/><path fill="#b4c1b0" d="M149 197l-36-35 72-4z"/><path fill="#fffcc3" d="M185 58l-62 35 14-105z"/><path fill="#96927d" d="M62 191l-7 56-55-33z"/><path fill="#4b4632" d="M77 98l108-24v29z"/><path fill="#ffffde" d="M89 85l-3 19 10-3z"/><path fill="#dab976" d="M22 154L-9 79l59 1z"/><path fill="#442b0b" d="M-12 124l54 14-43 6z"/><path fill="#0c0c05" d="M104 55l22 23-12 66z"/><path fill="#fffccf" d="M98 11l-4 60 38-61z"/><path d="M70 42l28 10-37 9z"/></g></svg>