<svg xmlns="http://www.w3.org/2000/svg" width="1024" height="335"><path fill="#85a5c8" d="M0 0h1024v335H0z"/><g fill-opacity=".5"><path fill="#d4f4fc" d="M637 338L297 26.5l430 24.6z"/><path fill="#3f6499" d="M657.4 313.3l286.7 86L825.3-63.4z"/><path fill="#e4f8ff" d="M366.6 399.4l-61.4-336L473-59.3z"/><path fill="#4c5c9b" d="M211-63.5l-53.3 462.9h217z"/><path fill="#2f4683" d="M563.2 297L469 383l-8.2-274.5z"/><path fill="#3068a5" d="M432.1-63.5L465 84 665.6-18.4z"/><path fill="#f0f6ff" d="M125 153.6L165.8 2l4 299z"/><path fill="#4a7eb4" d="M895 125L501.8-22.6l413.7-32.8z"/><path fill="#b4eaff" d="M895 256l81.9 131-61.4-352.2z"/><path fill="#c5e2f8" d="M469 354.3l-53.3-258-131-4.1z"/><path fill="#506ea2" d="M493.6 391.2l41-258-98.4 53.2z"/><path fill="#cce3f4" d="M546.8 71.7l143.4 241.6-90.1 86z"/><path fill="#677aa5" d="M178.2 317.4l172-380.9-176.1 12.3z"/><path fill="#e8ffff" d="M-63.5 14.3l180.2-77.8L6.1 51.2z"/><path fill="#bbeaf7" d="M600 22.5L768 129l-426 8.2z"/><path fill="#5b88b3" d="M915.5 260.1l-254-94.2 221.2-131z"/><path fill="#557da5" d="M1087.5 75.8L985 399.4l-32.8-114.7z"/><path fill="#a6e4ff" d="M1087.5-59.4L935.9 2l82 82z"/><path fill="#7d89aa" d="M34.8 47.1l110.6 57.3-122.9 295z"/><path fill="#ade3ff" d="M985 149.5v73.7l-90 45z"/><path fill="#5e7aa3" d="M845.8 399.4l61.5-282.7-258 123z"/><path fill="#b0e8ff" d="M313.3 190.5l45.1 159.7 65.5-94.2z"/><path fill="#a8b2cc" d="M26.6 178.2l118.8-8.2 36.9 192.5z"/><path fill="#5270a1" d="M510 112.6l24.5-20.4-8.2 53.2z"/><path fill="#4d5f91" d="M313.3 137.2l4.1 77.8-41-94.2z"/></g></svg>