<svg xmlns="http://www.w3.org/2000/svg" width="680" height="1024"><path fill="#4a4c45" d="M0 0h680v1024H0z"/><g fill-opacity=".5"><path fill="#fff" d="M530-62l212 460-588 236z"/><path d="M2 1086V282l740 720z"/><path fill="#ffffea" d="M170 674l572-404-356-40z"/><path d="M278 190L22 1062-10-62z"/><path fill="#000009" d="M714 686l-352 400 24-676z"/><path fill="#bcd5fd" d="M346 642l-172 20 52-260z"/><path fill="#6e827b" d="M298 294L742 38 274-62z"/><path fill="#ffffef" d="M710 226l28 272-420-244z"/><path fill="#737d72" d="M270 258l472-36-88-284z"/><path fill="#776b2d" d="M318 406l424 48-304 76z"/><path d="M74-62L-62 558l288 260z"/><path fill="#b6a8b2" d="M570 874l80 128h-80z"/><path fill="#592f1e" d="M366 278L78 314l248 112z"/><path fill="#ffffd9" d="M346 214l396 216-364-4z"/><path fill="#e1efff" d="M358 434L190 610l16-184z"/><path fill="#ccd77f" d="M602-62L326 34l416 4z"/><path fill="#000113" d="M90 746l456-156 88 332z"/><path fill="#46597d" d="M482 42L214 214 742 94z"/><path d="M334 262l-76 144-172 84z"/><path fill="#725f5e" d="M394 638L254 506l-8 92z"/><path fill="#b7bb6d" d="M270 182l220 68-188 4z"/><path fill="#d6e3f4" d="M398 506l-68 92-92-180z"/><path fill="#4b5930" d="M522 414l96 388 124-340z"/><path fill="#ffffe1" d="M742 466L346 342l364-140z"/><path fill="#1f1a0e" d="M-62 210L166-62l144 352z"/></g></svg>